ffmpeg started on 2016-12-08 at 21:24:37
Report written to "Output/x264/results/ffmpeg/sintelveryslow9000k.log"
Command line:
Tools/ffmpeg/ffmpeg -benchmark -y -i Input/y4m/sintel.y4m -c:v libx264 -preset veryslow -b:v 9000k -an Output/x264/encoded/sintelveryslow9000k.mkv
ffmpeg version N-82227-gdb23fde Copyright (c) 2000-2016 the FFmpeg developers
  built with gcc 5.4.0 (Ubuntu 5.4.0-6ubuntu1~16.04.2) 20160609
  configuration: --prefix=/home/jaroslav/ffmpeg_build --pkg-config-flags=--static --extra-cflags=-I/home/jaroslav/ffmpeg_build/include --extra-ldflags=-L/home/jaroslav/ffmpeg_build/lib --bindir=/home/jaroslav/bin --enable-gpl --enable-libass --enable-libfdk-aac --enable-libfreetype --enable-libmp3lame --enable-libopus --enable-libtheora --enable-libvorbis --enable-libvpx --enable-libx264 --enable-libx265 --enable-nvenc --enable-libmfx --enable-libxvid --enable-libgsm --enable-libopencore-amrnb --enable-version3 --enable-nonfree
  libavutil      55. 35.100 / 55. 35.100
  libavcodec     57. 66.101 / 57. 66.101
  libavformat    57. 57.100 / 57. 57.100
  libavdevice    57.  2.100 / 57.  2.100
  libavfilter     6. 66.100 /  6. 66.100
  libswscale      4.  3.100 /  4.  3.100
  libswresample   2.  4.100 /  2.  4.100
  libpostproc    54.  2.100 / 54.  2.100
Input #0, yuv4mpegpipe, from 'Input/y4m/sintel.y4m':
  Duration: 00:00:20.83, start: 0.000000, bitrate: 2057307 kb/s
    Stream #0:0: Video: rawvideo (I420 / 0x30323449), yuv420p(progressive), 4096x1744, SAR 1:1 DAR 256:109, 24 fps, 24 tbr, 24 tbn, 24 tbc
[libx264 @ 0x3caf1c0] using SAR=1/1
[libx264 @ 0x3caf1c0] DPB size (16 frames, 446464 mbs) > level limit (6 frames, 184320 mbs)
[libx264 @ 0x3caf1c0] using cpu capabilities: MMX2 SSE2Fast SSSE3 SSE4.2 AVX FMA3 AVX2 LZCNT BMI2
[libx264 @ 0x3caf1c0] profile High, level 5.2
[libx264 @ 0x3caf1c0] 264 - core 148 - H.264/MPEG-4 AVC codec - Copyleft 2003-2016 - http://www.videolan.org/x264.html - options: cabac=1 ref=16 deblock=1:0:0 analyse=0x3:0x133 me=umh subme=10 psy=1 psy_rd=1.00:0.00 mixed_ref=1 me_range=24 chroma_me=1 trellis=2 8x8dct=1 cqm=0 deadzone=21,11 fast_pskip=1 chroma_qp_offset=-2 threads=6 lookahead_threads=1 sliced_threads=0 nr=0 decimate=1 interlaced=0 bluray_compat=0 constrained_intra=0 bframes=8 b_pyramid=2 b_adapt=2 b_bias=0 direct=3 weightb=1 open_gop=0 weightp=2 keyint=250 keyint_min=24 scenecut=40 intra_refresh=0 rc_lookahead=60 rc=abr mbtree=1 bitrate=9000 ratetol=1.0 qcomp=0.60 qpmin=0 qpmax=69 qpstep=4 ip_ratio=1.40 aq=1:1.00
Output #0, matroska, to 'Output/x264/encoded/sintelveryslow9000k.mkv':
  Metadata:
    encoder         : Lavf57.57.100
    Stream #0:0: Video: h264 (libx264) (H264 / 0x34363248), yuv420p, 4096x1744 [SAR 1:1 DAR 256:109], q=-1--1, 9000 kb/s, 24 fps, 1k tbn, 24 tbc
    Metadata:
      encoder         : Lavc57.66.101 libx264
    Side data:
      cpb: bitrate max/min/avg: 0/0/9000000 buffer size: 0 vbv_delay: -1
Stream mapping:
  Stream #0:0 -> #0:0 (rawvideo (native) -> h264 (libx264))
Press [q] to stop, [?] for help
frame=   10 fps=0.0 q=0.0 size=       0kB time=00:00:00.00 bitrate=N/A speed=   0x    frame=   18 fps= 17 q=0.0 size=       0kB time=00:00:00.00 bitrate=N/A speed=   0x    frame=   27 fps= 17 q=0.0 size=       0kB time=00:00:00.00 bitrate=N/A speed=   0x    frame=   38 fps= 18 q=0.0 size=       0kB time=00:00:00.00 bitrate=N/A speed=   0x    frame=   45 fps= 16 q=0.0 size=       0kB time=00:00:00.00 bitrate=N/A speed=   0x    frame=   56 fps= 17 q=0.0 size=       0kB time=00:00:00.00 bitrate=N/A speed=   0x    frame=   67 fps= 18 q=0.0 size=       0kB time=00:00:00.00 bitrate=N/A speed=   0x    frame=   72 fps=3.3 q=0.0 size=       0kB time=00:00:00.00 bitrate=N/A speed=   0x    frame=   76 fps=3.3 q=25.0 size=       1kB time=-00:00:00.08 bitrate=N/A speed=N/A    frame=   78 fps=3.2 q=34.0 size=       1kB time=00:00:00.00 bitrate=5888.0kbits/s speed=4.06e-05x    frame=   80 fps=3.1 q=42.0 size=       1kB time=00:00:00.08 bitrate=  70.1kbits/s speed=0.00321x    frame=   81 fps=2.9 q=37.0 size=       1kB time=00:00:00.12 bitrate=  46.7kbits/s speed=0.00458x    frame=   82 fps=2.8 q=39.0 size=       1kB time=00:00:00.16 bitrate=  35.0kbits/s speed=0.00578x    frame=   83 fps=2.8 q=43.0 size=       1kB time=00:00:00.20 bitrate=  28.2kbits/s speed=0.00702x    frame=   87 fps=2.9 q=43.0 size=       1kB time=00:00:00.37 bitrate=  15.7kbits/s speed=0.0124x    frame=   88 fps=2.8 q=43.0 size=       1kB time=00:00:00.41 bitrate=  14.1kbits/s speed=0.0131x    frame=   89 fps=2.7 q=42.0 size=       1kB time=00:00:00.45 bitrate=  12.8kbits/s speed=0.0139x    frame=   90 fps=2.7 q=42.0 size=       1kB time=00:00:00.50 bitrate=  11.8kbits/s speed=0.0149x    frame=   91 fps=2.6 q=42.0 size=       1kB time=00:00:00.54 bitrate=  10.8kbits/s speed=0.0158x    frame=   92 fps=2.6 q=42.0 size=       1kB time=00:00:00.58 bitrate=  10.1kbits/s speed=0.0162x    frame=   93 fps=2.5 q=42.0 size=       1kB time=00:00:00.62 bitrate=   9.4kbits/s speed=0.0167x    frame=   94 fps=2.5 q=42.0 size=       1kB time=00:00:00.66 bitrate=   8.8kbits/s speed=0.0175x    frame=   96 fps=2.4 q=42.0 size=       1kB time=00:00:00.75 bitrate=   7.8kbits/s speed=0.0185x    frame=   97 fps=2.3 q=42.0 size=       1kB time=00:00:00.79 bitrate=   7.4kbits/s speed=0.019x    frame=   98 fps=2.3 q=42.0 size=       1kB time=00:00:00.83 bitrate=   7.1kbits/s speed=0.0194x    frame=   99 fps=2.3 q=42.0 size=       1kB time=00:00:00.87 bitrate=   6.7kbits/s speed=0.0199x    frame=  100 fps=2.2 q=42.0 size=       1kB time=00:00:00.91 bitrate=   6.4kbits/s speed=0.0205x    frame=  101 fps=2.2 q=42.0 size=       1kB time=00:00:00.95 bitrate=   6.1kbits/s speed=0.0207x    frame=  102 fps=2.2 q=41.0 size=       1kB time=00:00:01.00 bitrate=   5.9kbits/s speed=0.0213x    frame=  103 fps=2.2 q=41.0 size=       1kB time=00:00:01.04 bitrate=   5.6kbits/s speed=0.0218x    frame=  104 fps=2.1 q=41.0 size=       1kB time=00:00:01.08 bitrate=   5.4kbits/s speed=0.0222x    frame=  105 fps=2.1 q=41.0 size=       1kB time=00:00:01.12 bitrate=   5.2kbits/s speed=0.0226x    frame=  106 fps=2.1 q=41.0 size=       1kB time=00:00:01.16 bitrate=   5.0kbits/s speed=0.0229x    frame=  107 fps=2.0 q=41.0 size=       1kB time=00:00:01.20 bitrate=   4.9kbits/s speed=0.0229x    frame=  108 fps=2.0 q=41.0 size=       1kB time=00:00:01.25 bitrate=   4.7kbits/s speed=0.0233x    frame=  109 fps=2.0 q=41.0 size=       1kB time=00:00:01.29 bitrate=   4.6kbits/s speed=0.0238x    frame=  110 fps=2.0 q=41.0 size=       1kB time=00:00:01.33 bitrate=   4.4kbits/s speed=0.0238x    frame=  111 fps=1.9 q=40.0 size=       1kB time=00:00:01.37 bitrate=   4.3kbits/s speed=0.0241x    frame=  112 fps=1.9 q=40.0 size=       1kB time=00:00:01.41 bitrate=   4.2kbits/s speed=0.0243x    frame=  113 fps=1.9 q=40.0 size=       1kB time=00:00:01.45 bitrate=   4.0kbits/s speed=0.0247x    frame=  114 fps=1.9 q=40.0 size=       1kB time=00:00:01.50 bitrate=   3.9kbits/s speed=0.0251x    frame=  115 fps=1.9 q=40.0 size=       1kB time=00:00:01.54 bitrate=   3.8kbits/s speed=0.0253x    frame=  116 fps=1.9 q=40.0 size=       1kB time=00:00:01.58 bitrate=   3.7kbits/s speed=0.0255x    frame=  117 fps=1.9 q=40.0 size=       1kB time=00:00:01.62 bitrate=   3.6kbits/s speed=0.0258x    frame=  118 fps=1.9 q=40.0 size=       1kB time=00:00:01.66 bitrate=   3.5kbits/s speed=0.0263x    frame=  119 fps=1.8 q=40.0 size=       1kB time=00:00:01.70 bitrate=   3.4kbits/s speed=0.0265x    frame=  120 fps=1.8 q=40.0 size=       1kB time=00:00:01.75 bitrate=   3.4kbits/s speed=0.0265x    frame=  121 fps=1.8 q=40.0 size=       1kB time=00:00:01.79 bitrate=   3.3kbits/s speed=0.0269x    frame=  122 fps=1.8 q=39.0 size=       1kB time=00:00:01.83 bitrate=   3.2kbits/s speed=0.0273x    frame=  123 fps=1.8 q=39.0 size=       1kB time=00:00:01.87 bitrate=   3.1kbits/s speed=0.0277x    frame=  124 fps=1.8 q=39.0 size=       1kB time=00:00:01.91 bitrate=   3.1kbits/s speed=0.028x    frame=  125 fps=1.8 q=39.0 size=       1kB time=00:00:01.95 bitrate=   3.0kbits/s speed=0.0282x    frame=  126 fps=1.8 q=39.0 size=       1kB time=00:00:02.00 bitrate=   2.9kbits/s speed=0.0282x    frame=  127 fps=1.8 q=39.0 size=       1kB time=00:00:02.04 bitrate=   2.9kbits/s speed=0.0282x    frame=  128 fps=1.7 q=39.0 size=       1kB time=00:00:02.08 bitrate=   2.8kbits/s speed=0.0284x    frame=  129 fps=1.7 q=39.0 size=       1kB time=00:00:02.12 bitrate=   2.8kbits/s speed=0.0286x    frame=  130 fps=1.7 q=39.0 size=       1kB time=00:00:02.16 bitrate=   2.7kbits/s speed=0.0286x    frame=  131 fps=1.7 q=39.0 size=       1kB time=00:00:02.20 bitrate=   2.7kbits/s speed=0.0287x    frame=  132 fps=1.7 q=39.0 size=       1kB time=00:00:02.25 bitrate=   2.6kbits/s speed=0.0287x    frame=  133 fps=1.7 q=39.0 size=       1kB time=00:00:02.29 bitrate=   2.6kbits/s speed=0.0286x    frame=  134 fps=1.6 q=39.0 size=       1kB time=00:00:02.33 bitrate=   2.5kbits/s speed=0.0287x    frame=  135 fps=1.6 q=39.0 size=       1kB time=00:00:02.37 bitrate=   2.5kbits/s speed=0.0289x    frame=  136 fps=1.6 q=39.0 size=       1kB time=00:00:02.41 bitrate=   2.4kbits/s speed=0.029x    frame=  137 fps=1.6 q=39.0 size=       1kB time=00:00:02.45 bitrate=   2.4kbits/s speed=0.0292x    frame=  138 fps=1.6 q=39.0 size=       1kB time=00:00:02.50 bitrate=   2.4kbits/s speed=0.0294x    frame=  139 fps=1.6 q=39.0 size=       1kB time=00:00:02.54 bitrate=   2.3kbits/s speed=0.0292x    frame=  140 fps=1.6 q=39.0 size=       1kB time=00:00:02.58 bitrate=   2.3kbits/s speed=0.0294x    frame=  141 fps=1.6 q=39.0 size=       1kB time=00:00:02.62 bitrate=   2.2kbits/s speed=0.0296x    frame=  142 fps=1.5 q=39.0 size=       1kB time=00:00:02.66 bitrate=   2.2kbits/s speed=0.0289x    frame=  143 fps=1.5 q=39.0 size=       1kB time=00:00:02.70 bitrate=   2.2kbits/s speed=0.0292x    frame=  144 fps=1.5 q=39.0 size=       1kB time=00:00:02.75 bitrate=   2.1kbits/s speed=0.0293x    frame=  146 fps=1.5 q=38.0 size=       1kB time=00:00:02.83 bitrate=   2.1kbits/s speed=0.0297x    frame=  147 fps=1.5 q=38.0 size=       1kB time=00:00:02.87 bitrate=   2.0kbits/s speed=0.0299x    frame=  148 fps=1.5 q=38.0 size=       1kB time=00:00:02.91 bitrate=   2.0kbits/s speed=0.0294x    frame=  149 fps=1.5 q=38.0 size=       1kB time=00:00:02.95 bitrate=   2.0kbits/s speed=0.0295x    frame=  150 fps=1.5 q=38.0 size=       1kB time=00:00:03.00 bitrate=   2.0kbits/s speed=0.0297x    frame=  151 fps=1.5 q=38.0 size=       1kB time=00:00:03.04 bitrate=   1.9kbits/s speed=0.0297x    frame=  152 fps=1.5 q=38.0 size=       1kB time=00:00:03.08 bitrate=   1.9kbits/s speed=0.0298x    frame=  153 fps=1.5 q=38.0 size=       1kB time=00:00:03.12 bitrate=   1.9kbits/s speed=0.0298x    frame=  154 fps=1.5 q=38.0 size=       1kB time=00:00:03.16 bitrate=   1.9kbits/s speed=0.03x    frame=  155 fps=1.4 q=38.0 size=       1kB time=00:00:03.20 bitrate=   1.8kbits/s speed=0.0297x    frame=  156 fps=1.4 q=38.0 size=       1kB time=00:00:03.25 bitrate=   1.8kbits/s speed=0.0299x    frame=  157 fps=1.4 q=38.0 size=       1kB time=00:00:03.29 bitrate=   1.8kbits/s speed=0.0298x    frame=  158 fps=1.4 q=38.0 size=       1kB time=00:00:03.33 bitrate=   1.8kbits/s speed=0.0299x    frame=  159 fps=1.4 q=38.0 size=       1kB time=00:00:03.37 bitrate=   1.7kbits/s speed=0.03x    frame=  160 fps=1.4 q=38.0 size=       1kB time=00:00:03.41 bitrate=   1.7kbits/s speed=0.0301x    frame=  161 fps=1.4 q=38.0 size=       1kB time=00:00:03.45 bitrate=   1.7kbits/s speed=0.0302x    frame=  162 fps=1.4 q=38.0 size=       1kB time=00:00:03.50 bitrate=   1.7kbits/s speed=0.0302x    frame=  163 fps=1.4 q=38.0 size=       1kB time=00:00:03.54 bitrate=   1.7kbits/s speed=0.03x    frame=  164 fps=1.4 q=38.0 size=       1kB time=00:00:03.58 bitrate=   1.6kbits/s speed=0.0302x    frame=  165 fps=1.4 q=38.0 size=       1kB time=00:00:03.62 bitrate=   1.6kbits/s speed=0.0303x    frame=  166 fps=1.4 q=37.0 size=       1kB time=00:00:03.66 bitrate=   1.6kbits/s speed=0.0302x    frame=  168 fps=1.4 q=37.0 size=       1kB time=00:00:03.75 bitrate=   1.6kbits/s speed=0.0307x    frame=  169 fps=1.4 q=37.0 size=       1kB time=00:00:03.79 bitrate=   1.6kbits/s speed=0.0307x    frame=  171 fps=1.4 q=37.0 size=       1kB time=00:00:03.87 bitrate=   1.5kbits/s speed=0.0308x    frame=  172 fps=1.3 q=37.0 size=       1kB time=00:00:03.91 bitrate=   1.5kbits/s speed=0.0305x    frame=  173 fps=1.3 q=37.0 size=       1kB time=00:00:03.95 bitrate=   1.5kbits/s speed=0.0307x    frame=  175 fps=1.4 q=37.0 size=       1kB time=00:00:04.04 bitrate=   1.5kbits/s speed=0.0312x    frame=  176 fps=1.4 q=37.0 size=       1kB time=00:00:04.08 bitrate=   1.4kbits/s speed=0.0314x    frame=  177 fps=1.4 q=37.0 size=       1kB time=00:00:04.12 bitrate=   1.4kbits/s speed=0.0316x    frame=  178 fps=1.3 q=37.0 size=       1kB time=00:00:04.16 bitrate=   1.4kbits/s speed=0.0309x    frame=  179 fps=1.3 q=37.0 size=       1kB time=00:00:04.20 bitrate=   1.4kbits/s speed=0.0311x    frame=  182 fps=1.3 q=37.0 size=       1kB time=00:00:04.33 bitrate=   1.4kbits/s speed=0.0315x    frame=  183 fps=1.3 q=37.0 size=       1kB time=00:00:04.37 bitrate=   1.3kbits/s speed=0.0317x    frame=  184 fps=1.3 q=37.0 size=       1kB time=00:00:04.41 bitrate=   1.3kbits/s speed=0.0318x    frame=  185 fps=1.3 q=37.0 size=       1kB time=00:00:04.45 bitrate=   1.3kbits/s speed=0.0319x    frame=  186 fps=1.3 q=37.0 size=       1kB time=00:00:04.50 bitrate=   1.3kbits/s speed=0.032x    frame=  187 fps=1.3 q=37.0 size=    5141kB time=00:00:04.54 bitrate=9269.8kbits/s speed=0.0321x    frame=  188 fps=1.3 q=37.0 size=    5141kB time=00:00:04.58 bitrate=9186.9kbits/s speed=0.032x    frame=  189 fps=1.3 q=36.0 size=    5141kB time=00:00:04.62 bitrate=9103.5kbits/s speed=0.0321x    frame=  190 fps=1.3 q=36.0 size=    5141kB time=00:00:04.66 bitrate=9021.6kbits/s speed=0.0323x    frame=  192 fps=1.3 q=36.0 size=    5141kB time=00:00:04.75 bitrate=8864.0kbits/s speed=0.0319x    frame=  193 fps=1.3 q=36.0 size=    5141kB time=00:00:04.79 bitrate=8786.3kbits/s speed=0.032x    frame=  195 fps=1.3 q=36.0 size=    5141kB time=00:00:04.87 bitrate=8636.7kbits/s speed=0.0324x    frame=  196 fps=1.3 q=36.0 size=    5141kB time=00:00:04.91 bitrate=8563.0kbits/s speed=0.0325x    frame=  197 fps=1.3 q=36.0 size=    5141kB time=00:00:04.95 bitrate=8492.2kbits/s speed=0.0325x    frame=  198 fps=1.3 q=36.0 size=    5141kB time=00:00:05.00 bitrate=8420.9kbits/s speed=0.0324x    frame=  199 fps=1.3 q=36.0 size=    5141kB time=00:00:05.04 bitrate=8350.7kbits/s speed=0.0324x    frame=  200 fps=1.3 q=36.0 size=    5141kB time=00:00:05.08 bitrate=8283.4kbits/s speed=0.0325x    frame=  201 fps=1.3 q=36.0 size=    5141kB time=00:00:05.12 bitrate=8215.5kbits/s speed=0.0325x    frame=  202 fps=1.3 q=36.0 size=    5141kB time=00:00:05.16 bitrate=8148.8kbits/s speed=0.0327x    frame=  203 fps=1.3 q=36.0 size=    5141kB time=00:00:05.20 bitrate=8084.6kbits/s speed=0.0327x    frame=  204 fps=1.3 q=36.0 size=    5141kB time=00:00:05.25 bitrate=8019.9kbits/s speed=0.0327x    frame=  205 fps=1.3 q=36.0 size=    5141kB time=00:00:05.29 bitrate=7956.3kbits/s speed=0.0329x    frame=  206 fps=1.3 q=36.0 size=    5141kB time=00:00:05.33 bitrate=7895.2kbits/s speed=0.0329x    frame=  207 fps=1.3 q=36.0 size=    5141kB time=00:00:05.37 bitrate=7833.5kbits/s speed=0.0329x    frame=  208 fps=1.3 q=36.0 size=    5141kB time=00:00:05.41 bitrate=7772.7kbits/s speed=0.0329x    frame=  209 fps=1.3 q=36.0 size=    5141kB time=00:00:05.45 bitrate=7714.4kbits/s speed=0.0329x    frame=  210 fps=1.3 q=36.0 size=    5141kB time=00:00:05.50 bitrate=7655.5kbits/s speed=0.033x    frame=  211 fps=1.3 q=36.0 size=    5141kB time=00:00:05.54 bitrate=7597.5kbits/s speed=0.0331x    frame=  212 fps=1.3 q=36.0 size=    5141kB time=00:00:05.58 bitrate=7541.7kbits/s speed=0.0332x    frame=  213 fps=1.3 q=36.0 size=    5141kB time=00:00:05.62 bitrate=7485.4kbits/s speed=0.0333x    frame=  214 fps=1.3 q=36.0 size=    5141kB time=00:00:05.66 bitrate=7429.9kbits/s speed=0.0335x    frame=  215 fps=1.3 q=36.0 size=    5141kB time=00:00:05.70 bitrate=7376.6kbits/s speed=0.0336x    frame=  216 fps=1.3 q=36.0 size=    5141kB time=00:00:05.75 bitrate=7322.7kbits/s speed=0.0336x    frame=  217 fps=1.3 q=36.0 size=    5141kB time=00:00:05.79 bitrate=7269.6kbits/s speed=0.0336x    frame=  219 fps=1.3 q=36.0 size=    5141kB time=00:00:05.87 bitrate=7166.9kbits/s speed=0.0338x    frame=  220 fps=1.3 q=36.0 size=    5141kB time=00:00:05.91 bitrate=7116.0kbits/s speed=0.0338x    frame=  221 fps=1.3 q=36.0 size=    5141kB time=00:00:05.95 bitrate=7067.1kbits/s speed=0.0339x    frame=  222 fps=1.3 q=36.0 size=    5141kB time=00:00:06.00 bitrate=7017.6kbits/s speed=0.0339x    frame=  223 fps=1.3 q=36.0 size=    5141kB time=00:00:06.04 bitrate=6968.8kbits/s speed=0.034x    frame=  224 fps=1.3 q=36.0 size=    5141kB time=00:00:06.08 bitrate=6921.9kbits/s speed=0.034x    frame=  225 fps=1.3 q=36.0 size=    5141kB time=00:00:06.12 bitrate=6874.4kbits/s speed=0.0341x    frame=  226 fps=1.3 q=36.0 size=    5141kB time=00:00:06.16 bitrate=6827.6kbits/s speed=0.0341x    frame=  227 fps=1.2 q=36.0 size=    5141kB time=00:00:06.20 bitrate=6782.5kbits/s speed=0.0341x    frame=  228 fps=1.2 q=36.0 size=    5141kB time=00:00:06.25 bitrate=6737.0kbits/s speed=0.0342x    frame=  229 fps=1.2 q=36.0 size=    5141kB time=00:00:06.29 bitrate=6692.0kbits/s speed=0.0343x    frame=  230 fps=1.2 q=36.0 size=    5141kB time=00:00:06.33 bitrate=6648.7kbits/s speed=0.0344x    frame=  233 fps=1.2 q=36.0 size=    5141kB time=00:00:06.45 bitrate=6520.0kbits/s speed=0.0341x    frame=  235 fps=1.2 q=36.0 size=    5141kB time=00:00:06.54 bitrate=6436.3kbits/s speed=0.0344x    frame=  236 fps=1.2 q=36.0 size=    5141kB time=00:00:06.58 bitrate=6396.2kbits/s speed=0.0345x    frame=  237 fps=1.2 q=36.0 size=    5141kB time=00:00:06.62 bitrate=6355.7kbits/s speed=0.0345x    frame=  238 fps=1.2 q=36.0 size=    5141kB time=00:00:06.66 bitrate=6315.6kbits/s speed=0.0346x    frame=  239 fps=1.2 q=36.0 size=    5141kB time=00:00:06.70 bitrate=6277.1kbits/s speed=0.0344x    frame=  240 fps=1.2 q=36.0 size=    5141kB time=00:00:06.75 bitrate=6238.0kbits/s speed=0.0344x    frame=  241 fps=1.2 q=36.0 size=    5141kB time=00:00:06.79 bitrate=6199.4kbits/s speed=0.0345x    frame=  243 fps=1.2 q=36.0 size=    5141kB time=00:00:06.87 bitrate=6124.6kbits/s speed=0.0348x    frame=  244 fps=1.2 q=35.0 size=    5141kB time=00:00:06.91 bitrate=6087.4kbits/s speed=0.0349x    frame=  245 fps=1.2 q=35.0 size=    5141kB time=00:00:06.95 bitrate=6051.6kbits/s speed=0.0349x    frame=  246 fps=1.2 q=35.0 size=    5141kB time=00:00:07.00 bitrate=6015.2kbits/s speed=0.0348x    frame=  247 fps=1.2 q=35.0 size=    5141kB time=00:00:07.04 bitrate=5979.4kbits/s speed=0.0348x    frame=  248 fps=1.2 q=35.0 size=    5141kB time=00:00:07.08 bitrate=5944.8kbits/s speed=0.0348x    frame=  250 fps=1.2 q=35.0 size=    5141kB time=00:00:07.16 bitrate=5875.1kbits/s speed=0.035x    frame=  251 fps=1.2 q=35.0 size=    5141kB time=00:00:07.20 bitrate=5841.7kbits/s speed=0.0351x    frame=  252 fps=1.2 q=35.0 size=    5141kB time=00:00:07.25 bitrate=5807.9kbits/s speed=0.0352x    frame=  253 fps=1.2 q=35.0 size=    5141kB time=00:00:07.29 bitrate=5774.4kbits/s speed=0.0351x    frame=  254 fps=1.2 q=35.0 size=    5141kB time=00:00:07.33 bitrate=5742.1kbits/s speed=0.0351x    frame=  255 fps=1.2 q=35.0 size=    5141kB time=00:00:07.37 bitrate=5709.4kbits/s speed=0.0352x    frame=  256 fps=1.2 q=35.0 size=    5141kB time=00:00:07.41 bitrate=5677.1kbits/s speed=0.0352x    frame=  257 fps=1.2 q=35.0 size=    5141kB time=00:00:07.45 bitrate=5645.9kbits/s speed=0.0352x    frame=  259 fps=1.2 q=35.0 size=    5141kB time=00:00:07.54 bitrate=5583.0kbits/s speed=0.0354x    frame=  260 fps=1.2 q=35.0 size=    5141kB time=00:00:07.58 bitrate=5552.8kbits/s speed=0.035x    frame=  261 fps=1.2 q=35.0 size=    5141kB time=00:00:07.62 bitrate=5522.3kbits/s speed=0.0351x    frame=  262 fps=1.2 q=35.0 size=    5141kB time=00:00:07.66 bitrate=5492.0kbits/s speed=0.0352x    frame=  265 fps=1.2 q=35.0 size=    5141kB time=00:00:07.79 bitrate=5403.9kbits/s speed=0.0357x    frame=  266 fps=1.2 q=35.0 size=    5141kB time=00:00:07.83 bitrate=5375.6kbits/s speed=0.0356x    frame=  267 fps=1.2 q=35.0 size=    5141kB time=00:00:07.87 bitrate=5347.0kbits/s speed=0.0353x    frame=  268 fps=1.2 q=35.0 size=    5141kB time=00:00:07.91 bitrate=5318.6kbits/s speed=0.0354x    frame=  270 fps=1.2 q=35.0 size=    5141kB time=00:00:08.00 bitrate=5263.4kbits/s speed=0.0357x    frame=  272 fps=1.2 q=35.0 size=    5141kB time=00:00:08.08 bitrate=5209.4kbits/s speed=0.0359x    frame=  273 fps=1.2 q=35.0 size=    5141kB time=00:00:08.12 bitrate=5182.5kbits/s speed=0.0357x    frame=  274 fps=1.2 q=35.0 size=    5141kB time=00:00:08.16 bitrate=5155.8kbits/s speed=0.0356x    frame=  275 fps=1.2 q=35.0 size=    5141kB time=00:00:08.20 bitrate=5130.1kbits/s speed=0.0357x    frame=  276 fps=1.2 q=35.0 size=    5141kB time=00:00:08.25 bitrate=5104.0kbits/s speed=0.0358x    frame=  277 fps=1.2 q=35.0 size=    5141kB time=00:00:08.29 bitrate=5078.1kbits/s speed=0.0358x    frame=  278 fps=1.2 q=35.0 size=    5141kB time=00:00:08.33 bitrate=5053.1kbits/s speed=0.0357x    frame=  279 fps=1.2 q=35.0 size=    5141kB time=00:00:08.37 bitrate=5027.8kbits/s speed=0.0358x    frame=  280 fps=1.2 q=35.0 size=    5141kB time=00:00:08.41 bitrate=5002.7kbits/s speed=0.0359x    frame=  281 fps=1.2 q=35.0 size=    5141kB time=00:00:08.45 bitrate=4978.5kbits/s speed=0.036x    frame=  283 fps=1.2 q=35.0 size=    5141kB time=00:00:08.54 bitrate=4929.5kbits/s speed=0.0361x    frame=  284 fps=1.2 q=35.0 size=    5141kB time=00:00:08.58 bitrate=4906.0kbits/s speed=0.0359x    frame=  287 fps=1.2 q=35.0 size=    5141kB time=00:00:08.70 bitrate=4835.5kbits/s speed=0.0363x    frame=  289 fps=1.2 q=35.0 size=    5141kB time=00:00:08.79 bitrate=4789.3kbits/s speed=0.0362x    frame=  291 fps=1.2 q=35.0 size=    5141kB time=00:00:08.87 bitrate=4744.6kbits/s speed=0.0365x    frame=  292 fps=1.2 q=35.0 size=    5141kB time=00:00:08.91 bitrate=4722.2kbits/s speed=0.0363x    frame=  294 fps=1.2 q=35.0 size=    5141kB time=00:00:09.00 bitrate=4678.7kbits/s speed=0.0365x    frame=  295 fps=1.2 q=35.0 size=    5141kB time=00:00:09.04 bitrate=4656.9kbits/s speed=0.0364x    frame=  296 fps=1.2 q=35.0 size=    5141kB time=00:00:09.08 bitrate=4635.9kbits/s speed=0.0365x    frame=  298 fps=1.2 q=35.0 size=    5141kB time=00:00:09.16 bitrate=4593.4kbits/s speed=0.0364x    frame=  299 fps=1.2 q=35.0 size=    5141kB time=00:00:09.20 bitrate=4573.0kbits/s speed=0.0365x    frame=  302 fps=1.2 q=34.0 size=    5141kB time=00:00:09.33 bitrate=4511.8kbits/s speed=0.0365x    frame=  303 fps=1.2 q=34.0 size=    5141kB time=00:00:09.37 bitrate=4491.5kbits/s speed=0.0366x    frame=  305 fps=1.2 q=34.0 size=    5141kB time=00:00:09.45 bitrate=4452.1kbits/s speed=0.0368x    frame=  308 fps=1.2 q=34.0 size=    9803kB time=00:00:09.58 bitrate=8379.1kbits/s speed=0.0371x    frame=  309 fps=1.2 q=34.0 size=    9803kB time=00:00:09.62 bitrate=8342.6kbits/s speed=0.0368x    frame=  311 fps=1.2 q=34.0 size=    9803kB time=00:00:09.70 bitrate=8271.2kbits/s speed=0.037x    frame=  312 fps=1.2 q=34.0 size=    9803kB time=00:00:09.75 bitrate=8235.6kbits/s speed=0.037x    frame=  313 fps=1.2 q=34.0 size=    9803kB time=00:00:09.79 bitrate=8200.3kbits/s speed=0.0371x    frame=  315 fps=1.2 q=34.0 size=    9803kB time=00:00:09.87 bitrate=8131.4kbits/s speed=0.0372x    frame=  316 fps=1.2 q=34.0 size=    9803kB time=00:00:09.91 bitrate=8096.9kbits/s speed=0.0373x    frame=  318 fps=1.2 q=34.0 size=    9803kB time=00:00:10.00 bitrate=8029.7kbits/s speed=0.0374x    frame=  319 fps=1.2 q=34.0 size=    9803kB time=00:00:10.04 bitrate=7996.2kbits/s speed=0.0374x    frame=  321 fps=1.2 q=31.0 size=    9803kB time=00:00:10.12 bitrate=7930.6kbits/s speed=0.0374x    frame=  322 fps=1.2 q=34.0 size=    9803kB time=00:00:10.16 bitrate=7897.9kbits/s speed=0.0375x    frame=  324 fps=1.2 q=34.0 size=    9803kB time=00:00:10.25 bitrate=7833.9kbits/s speed=0.0376x    frame=  326 fps=1.2 q=34.0 size=   10412kB time=00:00:10.33 bitrate=8254.2kbits/s speed=0.0378x    frame=  332 fps=1.2 q=34.0 size=   10412kB time=00:00:10.58 bitrate=8059.2kbits/s speed=0.0385x    frame=  335 fps=1.2 q=34.0 size=   10412kB time=00:00:10.70 bitrate=7965.1kbits/s speed=0.0389x    frame=  337 fps=1.2 q=34.0 size=   10412kB time=00:00:10.79 bitrate=7903.1kbits/s speed=0.0391x    frame=  338 fps=1.2 q=34.0 size=   10412kB time=00:00:10.83 bitrate=7873.2kbits/s speed=0.0392x    frame=  340 fps=1.2 q=33.0 size=   10412kB time=00:00:10.91 bitrate=7812.7kbits/s speed=0.0394x    frame=  343 fps=1.2 q=33.0 size=   10412kB time=00:00:11.04 bitrate=7724.2kbits/s speed=0.0396x    frame=  344 fps=1.2 q=33.0 size=   10412kB time=00:00:11.08 bitrate=7695.6kbits/s speed=0.0396x    frame=  345 fps=1.2 q=33.0 size=   10412kB time=00:00:11.12 bitrate=7666.6kbits/s speed=0.0397x    frame=  346 fps=1.2 q=33.0 size=   10412kB time=00:00:11.16 bitrate=7637.8kbits/s speed=0.0396x    frame=  348 fps=1.2 q=33.0 size=   10412kB time=00:00:11.25 bitrate=7581.4kbits/s speed=0.0397x    frame=  350 fps=1.2 q=33.0 size=   10412kB time=00:00:11.33 bitrate=7525.9kbits/s speed=0.0399x    frame=  352 fps=1.2 q=33.0 size=   10412kB time=00:00:11.41 bitrate=7470.5kbits/s speed=0.0401x    frame=  353 fps=1.2 q=33.0 size=   10412kB time=00:00:11.45 bitrate=7443.8kbits/s speed=0.0399x    frame=  354 fps=1.2 q=33.0 size=   10412kB time=00:00:11.50 bitrate=7416.6kbits/s speed=0.0399x    frame=  357 fps=1.2 q=33.0 size=   10412kB time=00:00:11.62 bitrate=7336.9kbits/s speed=0.0401x    frame=  358 fps=1.2 q=33.0 size=   10412kB time=00:00:11.66 bitrate=7310.5kbits/s speed=0.0401x    frame=  360 fps=1.2 q=33.0 size=   10412kB time=00:00:11.75 bitrate=7258.8kbits/s speed=0.0401x    frame=  361 fps=1.2 q=33.0 size=   10412kB time=00:00:11.79 bitrate=7233.0kbits/s speed=0.0402x    frame=  362 fps=1.2 q=33.0 size=   10412kB time=00:00:11.83 bitrate=7207.9kbits/s speed=0.0402x    frame=  364 fps=1.2 q=33.0 size=   10412kB time=00:00:11.91 bitrate=7157.1kbits/s speed=0.0403x    frame=  365 fps=1.2 q=33.0 size=   10412kB time=00:00:11.95 bitrate=7132.6kbits/s speed=0.0404x    frame=  368 fps=1.2 q=33.0 size=   10412kB time=00:00:12.08 bitrate=7058.8kbits/s speed=0.0405x    frame=  369 fps=1.2 q=33.0 size=   10412kB time=00:00:12.12 bitrate=7034.4kbits/s speed=0.0406x    frame=  370 fps=1.2 q=33.0 size=   10412kB time=00:00:12.16 bitrate=7010.1kbits/s speed=0.0406x    frame=  372 fps=1.2 q=33.0 size=   10412kB time=00:00:12.25 bitrate=6962.6kbits/s speed=0.0408x    frame=  374 fps=1.2 q=33.0 size=   10412kB time=00:00:12.33 bitrate=6915.7kbits/s speed=0.041x    frame=  376 fps=1.2 q=32.0 size=   10412kB time=00:00:12.41 bitrate=6868.9kbits/s speed=0.0409x    frame=  378 fps=1.2 q=33.0 size=   10412kB time=00:00:12.50 bitrate=6823.3kbits/s speed=0.0411x    frame=  382 fps=1.2 q=32.0 size=   10412kB time=00:00:12.66 bitrate=6733.4kbits/s speed=0.0412x    frame=  386 fps=1.3 q=32.0 size=   10412kB time=00:00:12.83 bitrate=6646.3kbits/s speed=0.0417x    frame=  388 fps=1.2 q=32.0 size=   10412kB time=00:00:12.91 bitrate=6603.1kbits/s speed=0.0415x    frame=  391 fps=1.3 q=32.0 size=   10412kB time=00:00:13.04 bitrate=6539.8kbits/s speed=0.0419x    frame=  393 fps=1.3 q=32.0 size=   10412kB time=00:00:13.12 bitrate=6498.4kbits/s speed=0.042x    frame=  394 fps=1.3 q=32.0 size=   10412kB time=00:00:13.16 bitrate=6477.7kbits/s speed=0.0418x    frame=  399 fps=1.3 q=32.0 size=   10412kB time=00:00:13.37 bitrate=6377.0kbits/s speed=0.0422x    frame=  400 fps=1.3 q=32.0 size=   10412kB time=00:00:13.41 bitrate=6357.0kbits/s speed=0.0422x    frame=  404 fps=1.3 q=31.0 size=   10412kB time=00:00:13.58 bitrate=6279.3kbits/s speed=0.0426x    frame=  405 fps=1.3 q=31.0 size=   10412kB time=00:00:13.62 bitrate=6260.0kbits/s speed=0.0425x    frame=  408 fps=1.3 q=31.0 size=   10412kB time=00:00:13.75 bitrate=6203.1kbits/s speed=0.0426x    frame=  413 fps=1.3 q=31.0 size=   10412kB time=00:00:13.95 bitrate=6110.7kbits/s speed=0.043x    frame=  414 fps=1.3 q=31.0 size=   10412kB time=00:00:14.00 bitrate=6092.3kbits/s speed=0.0429x    frame=  419 fps=1.3 q=31.0 size=   10412kB time=00:00:14.20 bitrate=6003.1kbits/s speed=0.0432x    frame=  420 fps=1.3 q=31.0 size=   10412kB time=00:00:14.25 bitrate=5985.4kbits/s speed=0.0432x    frame=  425 fps=1.3 q=30.0 size=   10412kB time=00:00:14.45 bitrate=5899.3kbits/s speed=0.0435x    frame=  426 fps=1.3 q=31.0 size=   10412kB time=00:00:14.50 bitrate=5882.3kbits/s speed=0.0435x    frame=  430 fps=1.3 q=30.0 size=   10412kB time=00:00:14.66 bitrate=5815.3kbits/s speed=0.0439x    frame=  431 fps=1.3 q=30.0 size=   10412kB time=00:00:14.70 bitrate=5799.1kbits/s speed=0.0438x    frame=  434 fps=1.3 q=30.0 size=   10412kB time=00:00:14.83 bitrate=5750.2kbits/s speed=0.0441x    frame=  436 fps=1.3 q=30.0 size=   10412kB time=00:00:14.91 bitrate=5717.8kbits/s speed=0.0442x    frame=  437 fps=1.3 q=30.0 size=   10412kB time=00:00:14.95 bitrate=5702.2kbits/s speed=0.0442x    frame=  439 fps=1.3 q=30.0 size=   10412kB time=00:00:15.04 bitrate=5670.3kbits/s speed=0.0438x    frame=  441 fps=1.3 q=30.0 size=   10412kB time=00:00:15.12 bitrate=5639.2kbits/s speed=0.0439x    frame=  443 fps=1.3 q=30.0 size=   10412kB time=00:00:15.20 bitrate=5608.4kbits/s speed=0.0441x    frame=  445 fps=1.3 q=30.0 size=   13942kB time=00:00:15.29 bitrate=7468.5kbits/s speed=0.0441x    frame=  446 fps=1.3 q=30.0 size=   13942kB time=00:00:15.33 bitrate=7448.5kbits/s speed=0.0439x    frame=  447 fps=1.3 q=30.0 size=   13942kB time=00:00:15.37 bitrate=7428.1kbits/s speed=0.044x    frame=  449 fps=1.3 q=30.0 size=   13942kB time=00:00:15.45 bitrate=7388.3kbits/s speed=0.0441x    frame=  450 fps=1.3 q=30.0 size=   13942kB time=00:00:15.50 bitrate=7368.2kbits/s speed=0.0441x    frame=  451 fps=1.3 q=30.0 size=   13942kB time=00:00:15.54 bitrate=7348.3kbits/s speed=0.0442x    frame=  452 fps=1.3 q=30.0 size=   13942kB time=00:00:15.58 bitrate=7329.0kbits/s speed=0.0439x    frame=  454 fps=1.3 q=30.0 size=   13942kB time=00:00:15.66 bitrate=7289.7kbits/s speed=0.0441x    frame=  455 fps=1.3 q=30.0 size=   13942kB time=00:00:15.70 bitrate=7270.7kbits/s speed=0.0441x    frame=  457 fps=1.3 q=30.0 size=   13942kB time=00:00:15.79 bitrate=7232.0kbits/s speed=0.0442x    frame=  458 fps=1.3 q=30.0 size=   13942kB time=00:00:15.83 bitrate=7213.3kbits/s speed=0.0442x    frame=  459 fps=1.3 q=30.0 size=   13942kB time=00:00:15.87 bitrate=7194.2kbits/s speed=0.044x    frame=  461 fps=1.3 q=30.0 size=   13942kB time=00:00:15.95 bitrate=7156.8kbits/s speed=0.0442x    frame=  464 fps=1.3 q=29.0 size=   13942kB time=00:00:16.08 bitrate=7101.2kbits/s speed=0.0441x    frame=  465 fps=1.3 q=29.0 size=   13942kB time=00:00:16.12 bitrate=7082.7kbits/s speed=0.0441x    frame=  467 fps=1.3 q=29.0 size=   13942kB time=00:00:16.20 bitrate=7046.4kbits/s speed=0.0442x    frame=  468 fps=1.3 q=29.0 size=   13942kB time=00:00:16.25 bitrate=7028.2kbits/s speed=0.0441x    frame=  470 fps=1.3 q=30.0 size=   13942kB time=00:00:16.33 bitrate=6992.5kbits/s speed=0.0442x    frame=  471 fps=1.3 q=29.0 size=   13942kB time=00:00:16.37 bitrate=6974.5kbits/s speed=0.044x    frame=  473 fps=1.3 q=30.0 size=   13942kB time=00:00:16.45 bitrate=6939.4kbits/s speed=0.0441x    frame=  474 fps=1.3 q=30.0 size=   13942kB time=00:00:16.50 bitrate=6921.7kbits/s speed=0.0442x    frame=  476 fps=1.3 q=30.0 size=   13942kB time=00:00:16.58 bitrate=6887.1kbits/s speed=0.044x    frame=  477 fps=1.3 q=30.0 size=   13942kB time=00:00:16.62 bitrate=6869.7kbits/s speed=0.044x    frame=  479 fps=1.3 q=30.0 size=   13942kB time=00:00:16.70 bitrate=6835.5kbits/s speed=0.0442x    frame=  481 fps=1.3 q=30.0 size=   13942kB time=00:00:16.79 bitrate=6801.3kbits/s speed=0.0443x    frame=  482 fps=1.3 q=30.0 size=   13942kB time=00:00:16.83 bitrate=6784.8kbits/s speed=0.0441x    frame=  484 fps=1.3 q=30.0 size=   13942kB time=00:00:16.91 bitrate=6751.1kbits/s speed=0.0442x    frame=  485 fps=1.3 q=30.0 size=   13942kB time=00:00:16.95 bitrate=6734.8kbits/s speed=0.0442x    frame=  487 fps=1.3 q=30.0 size=   13942kB time=00:00:17.04 bitrate=6701.6kbits/s speed=0.0443x    frame=  488 fps=1.3 q=30.0 size=   13942kB time=00:00:17.08 bitrate=6685.5kbits/s speed=0.0443x    frame=  489 fps=1.3 q=30.0 size=   13942kB time=00:00:17.12 bitrate=6669.1kbits/s speed=0.0442x    frame=  490 fps=1.3 q=30.0 size=   13942kB time=00:00:17.16 bitrate=6652.8kbits/s speed=0.0442x    frame=  494 fps=1.3 q=30.0 size=   13942kB time=00:00:17.33 bitrate=6589.1kbits/s speed=0.044x    frame=  496 fps=1.3 q=30.0 size=   13942kB time=00:00:17.41 bitrate=6557.3kbits/s speed=0.0442x    frame=  497 fps=1.3 q=30.0 size=   13942kB time=00:00:17.45 bitrate=6541.9kbits/s speed=0.0442x    frame=  499 fps=1.3 q=30.0 size=   13942kB time=00:00:17.54 bitrate=6510.6kbits/s speed=0.0443x    frame=  500 fps=1.3 q=30.0 size=   13942kB time=00:00:17.58 bitrate=6495.4kbits/s speed=0.0442x    frame=  500 fps=1.1 q=-1.0 Lsize=   19741kB time=00:00:20.70 bitrate=7809.2kbits/s speed=0.0463x    
video:19737kB audio:0kB subtitle:0kB other streams:0kB global headers:0kB muxing overhead: 0.023923%
bench: utime=1694.268s
bench: maxrss=2799908kB
[libx264 @ 0x3caf1c0] frame I:3     Avg QP:24.64  size:210169
[libx264 @ 0x3caf1c0] frame P:268   Avg QP:31.98  size: 51758
[libx264 @ 0x3caf1c0] frame B:229   Avg QP:31.98  size: 24926
[libx264 @ 0x3caf1c0] consecutive B-frames: 36.2%  7.6% 18.0% 17.6% 11.0%  9.6%  0.0%  0.0%  0.0%
[libx264 @ 0x3caf1c0] mb I  I16..4: 15.6% 78.0%  6.4%
[libx264 @ 0x3caf1c0] mb P  I16..4: 17.8% 23.4%  0.3%  P16..4: 27.4%  2.0%  1.6%  0.0%  0.0%    skip:27.6%
[libx264 @ 0x3caf1c0] mb B  I16..4:  0.9%  1.8%  0.1%  B16..8: 31.4%  2.6%  0.5%  direct: 0.9%  skip:61.8%  L0:42.7% L1:54.6% BI: 2.7%
[libx264 @ 0x3caf1c0] final ratefactor: 27.31
[libx264 @ 0x3caf1c0] 8x8 transform intra:57.3% inter:88.0%
[libx264 @ 0x3caf1c0] direct mvs  spatial:99.1% temporal:0.9%
[libx264 @ 0x3caf1c0] coded y,uvDC,uvAC intra: 13.9% 17.3% 1.1% inter: 4.4% 3.4% 0.1%
[libx264 @ 0x3caf1c0] i16 v,h,dc,p: 22% 26%  9% 43%
[libx264 @ 0x3caf1c0] i8 v,h,dc,ddl,ddr,vr,hd,vl,hu: 19% 14% 33%  5%  6%  6%  7%  5%  6%
[libx264 @ 0x3caf1c0] i4 v,h,dc,ddl,ddr,vr,hd,vl,hu: 15% 16%  7%  6% 12% 11% 14%  6% 11%
[libx264 @ 0x3caf1c0] i8c dc,h,v,p: 69% 19%  9%  3%
[libx264 @ 0x3caf1c0] Weighted P-Frames: Y:1.5% UV:1.1%
[libx264 @ 0x3caf1c0] ref P L0: 62.2% 15.8%  9.5%  3.2%  2.0%  1.5%  1.4%  0.8%  0.7%  0.6%  0.5%  0.5%  0.4%  0.4%  0.3%  0.2%
[libx264 @ 0x3caf1c0] ref B L0: 87.8%  5.7%  2.4%  1.0%  0.7%  0.6%  0.4%  0.3%  0.3%  0.2%  0.2%  0.1%  0.1%  0.1%  0.1%
[libx264 @ 0x3caf1c0] ref B L1: 98.3%  1.7%
[libx264 @ 0x3caf1c0] kb/s:7760.52
